<?xml version="1.0" standalone="no"?>
<!DOCTYPE svg PUBLIC "-//W3C//DTD SVG 20010904//EN"
 "http://www.w3.org/TR/2001/REC-SVG-20010904/DTD/svg10.dtd">
<svg version="1.0" xmlns="http://www.w3.org/2000/svg"
 width="825.000000pt" height="586.000000pt" viewBox="0 0 825.000000 586.000000"
 preserveAspectRatio="xMidYMid meet">
<metadata>
Created by potrace 1.16, written by Peter Selinger 2001-2019
</metadata>
<g transform="translate(0.000000,586.000000) scale(0.100000,-0.100000)"
fill="#000000" stroke="none">
<path d="M7090 5794 c-118 -22 -238 -51 -323 -79 -124 -40 -269 -94 -281 -106
-6 -5 -15 -9 -22 -9 -7 0 -55 -20 -107 -45 -53 -25 -98 -45 -101 -45 -10 0
-230 -111 -236 -119 -10 -14 -68 -51 -81 -51 -7 0 -23 -9 -35 -21 -15 -14 -43
-24 -81 -28 -32 -4 -80 -17 -108 -28 -27 -12 -88 -36 -135 -54 -59 -23 -100
-47 -135 -79 -27 -25 -51 -48 -53 -52 -2 -5 -16 -8 -32 -8 -15 0 -33 -6 -39
-14 -6 -8 -21 -16 -33 -19 -17 -5 -15 0 13 29 30 31 32 35 17 50 -15 15 -23
15 -100 0 -105 -21 -345 -27 -413 -11 -27 6 -70 21 -94 33 -25 12 -49 22 -54
22 -6 0 -23 14 -38 31 l-28 32 -10 -27 c-6 -14 -13 -26 -17 -26 -3 0 -4 6 -1
14 3 8 -1 20 -9 27 -8 7 -12 20 -8 31 3 11 -4 37 -17 61 -32 61 -49 141 -38
179 12 43 -4 59 -31 32 -45 -44 -34 -188 24 -329 18 -44 38 -79 44 -78 6 2 9
-3 6 -10 -3 -8 2 -34 10 -58 8 -24 22 -73 32 -109 14 -53 28 -77 76 -130 32
-36 67 -76 79 -88 15 -17 27 -22 44 -18 25 6 55 -15 55 -38 0 -15 42 -36 73
-36 14 0 28 11 38 29 19 33 54 42 107 30 20 -5 63 -9 94 -9 32 0 88 -5 126
-12 58 -10 79 -9 138 5 85 21 102 21 49 0 -50 -20 -355 -29 -416 -13 -43 12
-79 0 -79 -26 0 -8 -7 -17 -16 -21 -11 -4 -14 -13 -10 -29 4 -14 2 -24 -4 -24
-5 0 -10 9 -10 20 0 14 -7 20 -22 20 -31 0 -89 37 -95 61 -4 13 -14 19 -35 19
-22 0 -42 14 -90 65 -34 36 -65 65 -68 65 -3 0 -1 -33 6 -72 8 -42 13 -157 14
-272 0 -195 -4 -237 -47 -481 -27 -157 -34 -290 -18 -359 18 -82 35 -126 63
-161 23 -29 23 -29 17 -5 -15 58 -18 228 -4 259 20 44 27 38 22 -16 -2 -27 -4
-55 -4 -63 4 -124 35 -238 77 -283 26 -28 152 -97 177 -97 10 0 17 20 22 68
12 99 14 336 2 343 -5 4 -5 14 2 27 6 12 11 76 11 153 0 73 2 130 5 127 3 -2
5 -170 6 -373 l0 -368 62 6 c34 3 71 9 82 12 11 3 7 -2 -10 -11 -34 -20 -32
-21 50 -32 l60 -9 -50 -23 c-62 -29 -136 -81 -199 -139 -162 -152 -231 -202
-351 -256 -118 -53 -130 -59 -133 -78 -2 -9 1 -17 7 -17 6 0 30 -9 54 -19 23
-11 61 -22 84 -26 70 -11 99 -82 106 -265 3 -85 2 -109 -4 -75 -11 68 -31 81
-81 53 l-38 -22 0 -253 c0 -215 2 -258 16 -281 15 -25 15 -26 0 -7 -15 18 -16
-1 -16 -280 1 -277 0 -306 -20 -384 -45 -173 -72 -207 -325 -416 -146 -120
-166 -141 -141 -151 18 -7 77 8 281 71 228 71 208 58 244 172 16 54 39 133 50
176 11 43 34 106 50 140 16 34 32 69 35 77 13 34 -6 -80 -24 -140 -44 -156
-60 -246 -47 -279 6 -17 16 -31 22 -31 49 0 803 356 834 394 15 18 -2 31 -55
45 -32 9 -45 18 -54 42 -7 17 -87 105 -177 195 -89 91 -163 169 -163 175 0 5
14 -3 31 -18 17 -16 36 -27 40 -25 5 1 14 -9 19 -23 10 -26 30 -34 30 -12 1 6
6 0 13 -16 7 -15 50 -60 97 -101 l85 -74 5 307 c3 168 5 444 5 612 0 278 -2
307 -17 323 -23 22 -22 34 2 87 16 36 20 66 20 161 0 70 -4 119 -10 123 -11 7
-3 72 10 90 5 6 10 21 12 34 1 13 10 27 18 31 8 4 40 18 70 33 72 34 124 47
154 39 13 -4 45 -26 70 -50 l46 -43 0 -89 c0 -67 5 -103 21 -142 21 -55 21
-76 -4 -143 -13 -34 -16 -133 -21 -585 -4 -300 -6 -739 -6 -976 l0 -431 -37
-16 c-53 -24 -218 -66 -353 -92 -83 -15 -115 -25 -115 -36 0 -33 721 -35 942
-2 106 16 112 18 129 48 10 16 27 39 38 50 17 18 17 16 -3 -19 -12 -21 -19
-41 -16 -44 7 -8 90 14 206 53 104 36 295 127 408 196 40 24 80 49 89 54 52
30 198 150 275 225 l87 86 0 84 c0 47 -5 128 -11 180 -17 152 -17 156 -10 169
7 11 34 -120 47 -226 4 -31 14 -59 24 -68 17 -15 19 -14 37 11 10 15 30 40 46
56 15 16 27 35 27 43 0 7 11 38 25 68 14 31 28 79 32 109 4 35 13 61 28 78 13
14 30 42 39 63 8 20 22 40 31 44 19 7 30 32 56 132 15 59 16 76 7 82 -10 6 -9
11 3 21 9 7 20 30 24 51 6 36 5 38 -14 32 -16 -5 -21 -2 -21 10 0 12 6 16 20
12 21 -5 24 2 35 118 3 33 10 94 15 135 5 41 9 139 10 218 0 129 -2 142 -17
142 -15 0 -15 2 -4 9 17 11 17 59 0 211 -32 290 -86 485 -195 695 -146 283
-283 445 -552 654 -24 18 -45 31 -48 29 -2 -3 2 -20 10 -39 13 -32 55 -202 93
-379 10 -46 29 -94 48 -125 18 -27 40 -67 49 -89 41 -98 79 -335 92 -571 4
-72 11 -133 17 -137 8 -4 7 -11 0 -20 -6 -7 -13 -76 -17 -153 -3 -77 -10 -176
-16 -220 -17 -143 -30 -239 -35 -267 -5 -20 -1 -30 17 -42 l22 -16 -26 0 c-27
0 -41 -20 -32 -45 3 -8 -1 -22 -10 -30 -9 -9 -16 -25 -16 -35 0 -10 -3 -25 -6
-34 -4 -11 0 -16 14 -16 23 0 41 -19 20 -21 -7 -1 -17 -1 -22 0 -4 1 -14 -4
-22 -10 -11 -9 -11 -15 -3 -25 15 -19 29 -18 29 2 0 11 6 14 21 9 14 -5 25 -1
34 12 13 17 14 17 15 1 0 -10 -5 -18 -11 -18 -7 0 -9 -11 -6 -30 5 -21 2 -32
-9 -38 -13 -7 -9 -13 21 -30 43 -26 49 -27 65 -7 18 21 27 19 32 -8 6 -30 -21
-64 -56 -73 -35 -8 -33 -18 9 -34 36 -14 47 -30 20 -30 -8 0 -15 -4 -15 -10 0
-5 -9 -10 -21 -10 -11 0 -17 -4 -14 -10 4 -6 1 -18 -6 -26 -10 -12 -8 -18 7
-30 10 -9 14 -13 7 -10 -16 9 -28 -13 -14 -27 6 -6 11 -18 11 -27 0 -18 -37
-44 -45 -30 -3 5 1 13 10 17 12 7 12 10 -4 20 -16 10 -20 7 -30 -28 -7 -22
-19 -43 -27 -46 -21 -8 -29 4 -14 22 7 9 10 18 6 22 -3 3 -6 1 -6 -6 0 -7 -5
-9 -10 -6 -6 3 -24 -9 -40 -27 -17 -18 -30 -26 -30 -19 0 7 -6 11 -14 8 -10
-4 -16 2 -18 16 l-3 22 -23 -23 c-28 -28 -40 -22 -24 12 10 22 9 23 -29 23
-29 0 -44 -5 -54 -21 -31 -43 -6 -66 73 -68 26 0 52 -4 58 -9 12 -10 54 -1 54
12 0 5 9 9 20 9 25 0 27 -20 3 -20 -17 -1 -65 -30 -49 -30 5 0 3 -7 -4 -15
-10 -11 -9 -18 4 -30 22 -22 20 -39 -7 -71 l-24 -27 -32 19 c-17 10 -34 29
-37 41 -4 13 -12 23 -20 23 -7 0 -17 6 -21 13 -4 8 -21 17 -38 21 -24 5 -26 4
-12 -4 21 -13 22 -43 2 -60 -19 -16 -45 -6 -52 20 -5 20 -23 28 -23 11 0 -5
-16 -32 -35 -60 -19 -28 -35 -57 -35 -65 0 -34 -54 -224 -76 -267 -13 -27 -49
-70 -85 -100 -106 -92 -133 -123 -173 -200 -61 -115 -116 -166 -69 -62 19 41
29 84 34 149 4 51 15 117 24 149 9 31 15 58 13 61 -3 2 -23 -10 -46 -27 -28
-21 -39 -35 -36 -47 5 -14 4 -14 -4 -3 -8 11 -29 2 -109 -51 -104 -69 -262
-158 -282 -158 -6 0 -11 10 -11 23 0 13 -6 29 -12 35 -9 9 -10 17 -1 30 6 10
11 68 11 134 1 98 -1 117 -15 122 -14 6 -14 8 1 24 12 15 16 40 16 116 0 89
-2 98 -20 103 -11 3 -20 9 -20 14 0 5 9 9 20 9 20 0 20 7 20 400 0 223 -4 400
-9 400 -5 0 -14 -15 -21 -32 -6 -18 -20 -56 -31 -83 -10 -28 -19 -59 -19 -70
0 -11 -7 -38 -16 -60 l-15 -40 5 75 c6 76 27 149 65 228 12 23 26 65 31 93 14
71 13 1196 0 1204 -7 4 -6 13 1 26 13 25 3 62 -11 39 -5 -8 -25 -15 -45 -16
-20 0 -41 -7 -45 -15 -5 -7 -12 -10 -16 -7 -7 8 24 42 40 44 6 1 16 2 23 3 17
1 67 50 60 58 -4 3 -14 0 -23 -8 -9 -7 -24 -14 -33 -14 -44 -3 -51 -6 -51 -20
0 -8 -6 -15 -14 -15 -8 0 -16 -5 -18 -11 -2 -6 -17 -9 -33 -7 l-30 5 33 8 c33
8 40 23 20 43 -9 9 -7 13 5 18 13 5 14 9 4 25 -9 14 -9 21 1 31 10 10 15 10
21 -1 5 -8 7 -21 3 -29 -3 -10 0 -13 9 -10 8 3 13 11 11 17 -3 14 34 15 43 1
3 -5 14 -10 23 -9 11 0 12 3 5 6 -22 8 -15 35 7 28 11 -4 20 -2 20 4 0 6 -9
11 -21 11 -21 0 -21 1 -2 47 3 8 -3 10 -18 6 -20 -6 -21 -4 -14 23 4 16 8 39
10 51 1 13 8 29 14 37 10 12 8 17 -7 25 -23 12 -31 -5 -27 -62 3 -31 -1 -37
-26 -47 -29 -12 -38 -33 -19 -45 17 -10 11 -25 -10 -25 -11 0 -20 7 -20 15 0
9 -9 15 -25 15 -25 0 -34 -14 -16 -24 5 -4 12 0 15 6 3 7 4 2 3 -12 -1 -18 -7
-24 -19 -22 -24 4 -23 -10 2 -26 12 -7 18 -17 15 -22 -4 -6 -11 -8 -16 -5 -5
4 -18 0 -29 -8 -17 -12 -18 -16 -6 -20 9 -4 18 -2 21 3 8 12 25 13 25 2 0 -5
-11 -15 -25 -22 -24 -13 -25 -18 -25 -101 0 -65 -5 -95 -17 -118 l-18 -31
-142 2 c-106 2 -143 6 -143 16 0 6 -4 12 -10 12 -5 0 -17 15 -27 33 -22 41
-29 328 -15 586 9 165 9 175 -9 194 -37 40 -17 51 24 13 15 -14 34 -22 49 -20
287 43 290 43 284 60 -3 7 -1 16 4 19 6 4 10 -2 10 -12 0 -10 7 -29 16 -42 11
-14 13 -26 7 -30 -14 -8 -8 -81 7 -91 13 -8 129 -12 142 -4 4 3 2 14 -4 24
-16 25 -3 38 22 22 17 -10 20 -10 20 3 0 8 -6 15 -12 15 -7 0 -3 8 9 18 19 14
23 29 25 87 l3 70 55 26 c30 15 58 25 61 23 4 -2 4 -21 2 -42 -2 -21 5 -73 16
-117 12 -43 21 -89 21 -102 0 -23 25 -82 39 -93 18 -14 52 -75 91 -165 24 -55
53 -118 65 -141 27 -51 37 -76 27 -70 -4 2 -27 44 -51 93 -24 48 -59 120 -79
158 -39 80 -74 135 -84 135 -4 0 -15 -11 -24 -25 -19 -30 -12 -85 14 -111 13
-13 14 -18 4 -22 -10 -3 -10 -7 0 -20 10 -12 10 -16 1 -19 -9 -3 -13 -35 -13
-110 0 -95 2 -104 18 -99 13 4 17 0 18 -19 2 -22 -1 -23 -18 -14 -27 15 -34 4
-20 -33 7 -20 8 -34 2 -38 -9 -6 -7 -56 6 -133 4 -28 24 -58 69 -110 67 -74
90 -117 53 -94 -10 7 -28 26 -38 42 -29 48 -67 78 -86 71 -14 -6 -16 -20 -12
-119 3 -61 8 -119 12 -127 4 -8 21 -24 39 -35 30 -20 32 -24 33 -85 0 -54 8
-83 47 -175 81 -188 106 -227 325 -504 116 -148 222 -286 235 -305 12 -19 28
-35 35 -36 6 0 12 -6 12 -14 0 -8 10 -27 23 -42 20 -23 26 -25 45 -15 19 10
20 13 7 38 -10 18 -11 32 -4 44 7 14 4 24 -12 40 -14 14 -18 24 -11 31 6 6 12
6 16 -1 12 -19 28 -13 18 6 -12 23 -8 109 6 125 7 9 7 29 1 63 -5 28 -9 77 -9
110 0 33 -4 110 -9 170 l-10 110 -108 104 c-59 58 -94 96 -78 85 55 -38 54
-39 50 23 l-4 58 10 -65 c9 -60 14 -69 67 -122 31 -32 59 -58 63 -58 3 0 12
19 18 43 13 48 10 116 -9 199 -11 49 -10 70 6 165 18 101 21 188 13 378 -4
101 16 264 36 300 10 17 35 42 56 57 22 15 39 36 39 46 0 17 -216 210 -225
201 -2 -3 -6 -24 -9 -48 -8 -67 -16 -61 -16 12 l0 66 -52 48 c-28 26 -97 91
-152 144 -240 228 -230 219 -255 214 -14 -4 -30 0 -42 11 -17 15 -19 15 -25 1
-5 -14 -2 -36 21 -137 4 -18 2 -15 -9 9 -9 18 -16 44 -16 56 0 13 -7 26 -16
29 -24 9 -15 71 11 72 11 0 27 3 35 6 8 3 38 14 65 24 89 31 182 101 334 249
121 118 148 150 143 167 -3 14 -1 19 7 14 6 -4 23 2 37 13 l26 20 -23 11 c-28
13 -39 70 -14 70 8 0 15 -7 15 -15 0 -21 21 -19 27 3 4 16 13 18 56 15 49 -4
55 -2 99 37 55 48 109 146 113 208 2 24 -3 58 -11 77 -13 31 -19 35 -52 35
-20 0 -44 5 -52 10 -12 7 -7 12 22 25 21 8 43 15 51 15 19 0 37 -21 37 -45 0
-26 27 -65 46 -65 8 0 14 9 14 20 0 11 5 20 10 20 6 0 10 -15 10 -34 0 -18 6
-46 14 -60 7 -14 11 -38 8 -52 -4 -21 -9 -24 -27 -20 -19 5 -23 2 -21 -19 1
-31 9 -31 35 -4 11 12 25 18 31 14 6 -4 21 3 32 15 15 15 23 19 31 11 6 -6 38
-11 70 -11 56 0 59 1 54 22 -8 30 10 58 38 58 35 0 44 -38 15 -62 -13 -10 -21
-20 -19 -21 2 -2 21 -11 41 -22 64 -33 171 -149 195 -210 6 -16 25 -65 42
-108 27 -66 33 -96 38 -195 5 -90 10 -120 22 -129 14 -11 14 -12 -1 -13 -21 0
-24 -20 -6 -38 9 -9 8 -12 -5 -12 -10 0 -17 -8 -17 -20 0 -20 -39 -144 -61
-195 -7 -16 -28 -54 -47 -84 -18 -29 -31 -55 -28 -58 16 -16 135 204 180 334
64 187 52 402 -37 663 -62 181 -228 333 -399 366 l-73 14 69 -6 c176 -13 347
-156 419 -349 78 -207 104 -415 73 -590 -15 -83 -20 -98 -67 -203 -16 -35 -29
-65 -29 -67 0 -2 -14 -27 -30 -56 -24 -40 -28 -54 -19 -65 6 -8 8 -15 3 -16
-5 0 -13 -2 -19 -2 -5 -1 -33 -24 -61 -52 -29 -28 -72 -58 -98 -68 -42 -16
-64 -46 -34 -46 22 0 102 34 161 68 48 28 56 36 46 48 -9 12 -6 14 19 14 24 0
41 12 81 56 36 40 50 62 46 75 -7 21 14 66 44 93 12 11 24 37 27 58 7 40 20
50 26 21 7 -32 36 52 43 124 4 37 9 71 11 74 2 4 -3 23 -11 42 -11 28 -13 57
-8 128 5 73 8 87 16 68 5 -13 7 -51 4 -84 -4 -38 -1 -71 7 -90 12 -28 14 -24
20 65 8 99 -9 247 -38 340 -49 159 -147 315 -280 446 -126 124 -214 173 -371
205 -96 19 -349 33 -405 23z m-2331 -3849 c6 -104 15 -257 21 -340 5 -82 9
-206 8 -275 l-1 -125 -8 155 c-7 166 -14 192 -70 275 -17 25 -29 48 -26 51 2
3 15 -11 27 -31 l23 -37 12 34 c11 33 7 260 -9 503 -4 66 -3 71 4 30 5 -27 13
-135 19 -240z"/>
<path d="M1115 5768 c68 -22 157 -62 147 -66 -6 -2 -24 4 -41 12 -87 45 -297
71 -337 42 -13 -10 -23 -11 -31 -4 -14 11 -89 -8 -166 -42 -39 -17 -46 -25
-49 -53 -2 -22 -9 -33 -22 -35 -15 -3 -18 0 -13 17 3 12 2 21 -2 21 -14 0 -84
-56 -125 -99 l-40 -41 40 -34 c27 -25 34 -35 22 -36 -9 0 -20 5 -23 10 -7 12
-46 14 -44 3 4 -27 -1 -33 -20 -21 -18 11 -18 12 3 29 11 9 18 21 14 24 -8 9
-58 -35 -58 -50 0 -5 -13 -25 -29 -44 -24 -28 -28 -40 -24 -70 10 -63 43 -100
43 -48 1 20 2 20 11 5 5 -10 19 -18 29 -18 11 0 20 -7 20 -15 0 -11 -8 -13
-30 -8 -20 4 -30 2 -30 -7 0 -16 -51 -4 -67 16 -8 11 -13 12 -18 4 -4 -6 1
-20 10 -30 15 -17 15 -19 -1 -28 -12 -6 -13 -11 -5 -16 7 -4 18 -2 26 4 16 13
19 3 9 -24 -3 -8 -12 -12 -21 -9 -8 3 -19 0 -24 -8 -6 -9 -9 0 -9 28 0 51 -16
64 -32 27 -10 -22 -10 -28 0 -32 19 -6 14 -32 -7 -32 -36 0 -55 -106 -26 -143
7 -11 16 -38 20 -60 4 -23 18 -88 32 -145 14 -57 23 -106 20 -109 -18 -18 -41
45 -73 200 -10 48 -22 87 -26 87 -25 0 -21 -252 7 -380 54 -246 197 -445 389
-538 63 -31 136 -50 136 -37 0 4 -28 33 -62 65 -35 31 -80 87 -101 123 -21 36
-48 74 -59 84 -25 22 -53 77 -64 123 -4 19 -8 135 -8 257 -1 176 2 219 12 211
9 -8 12 -6 12 6 0 9 9 25 21 37 19 19 20 22 5 54 -21 43 -20 65 2 65 10 0 4 7
-16 16 -31 16 -43 34 -22 34 6 0 10 4 10 10 0 8 -57 3 -68 -5 -5 -4 21 -49 33
-57 6 -4 2 -8 -7 -8 -10 0 -18 6 -18 13 0 16 -37 51 -62 60 -10 4 -18 13 -18
22 0 19 9 19 31 -1 16 -14 21 -14 51 -1 18 8 42 16 53 16 52 4 70 2 73 -8 2
-5 13 -22 24 -36 l20 -26 19 20 c25 26 24 29 -5 24 -17 -4 -27 1 -35 15 -6 11
-25 25 -42 31 -36 13 -34 35 4 39 19 2 27 9 27 23 0 10 -7 19 -15 19 -9 0 -12
-6 -9 -15 8 -20 -6 -19 -22 3 -20 26 -17 32 15 32 31 0 31 1 32 63 1 31 -11
50 -18 30 -5 -15 -33 -17 -33 -3 0 6 6 10 14 10 8 0 17 7 20 17 6 14 8 14 21
-3 8 -10 15 -15 15 -10 0 5 6 3 14 -3 12 -10 19 -8 35 8 12 12 22 29 24 39 1
9 7 19 12 22 5 3 8 -17 6 -47 -2 -51 2 -59 33 -54 14 3 36 -21 36 -39 0 -14 8
-16 55 -12 54 4 92 -9 79 -29 -5 -8 39 -14 79 -9 10 1 24 -5 30 -12 7 -8 38
-24 70 -37 l58 -23 15 21 c21 30 31 26 38 -14 5 -26 12 -35 26 -35 11 0 20 5
20 10 0 6 5 10 11 10 6 0 8 -7 5 -16 -9 -24 20 -53 46 -46 17 4 20 2 14 -13
-4 -11 0 -25 11 -37 13 -15 14 -21 4 -27 -17 -11 3 -86 25 -95 36 -14 47 32
17 74 -13 18 -5 14 29 -14 28 -23 48 -50 52 -67 4 -20 17 -34 44 -48 21 -11
51 -38 65 -60 15 -23 31 -41 35 -41 5 0 37 -27 71 -60 34 -33 73 -65 86 -72
13 -7 50 -31 82 -53 32 -22 80 -50 108 -62 27 -11 51 -28 53 -36 3 -14 -102
-126 -176 -187 -122 -102 -269 -260 -162 -175 16 12 50 27 50 21 0 -7 -85 -59
-97 -59 -6 0 -11 -4 -10 -8 1 -4 -21 -23 -49 -41 -42 -27 -118 -88 -168 -133
-6 -6 -32 -28 -58 -49 -27 -21 -48 -44 -48 -51 0 -7 13 -24 28 -37 16 -12 48
-39 71 -58 24 -19 52 -51 62 -70 47 -83 62 -112 124 -240 64 -132 65 -136 65
-215 0 -93 15 -186 37 -228 8 -16 13 -31 10 -33 -2 -2 -18 24 -36 59 -28 54
-33 75 -37 162 -6 107 -28 179 -87 279 -15 27 -44 80 -63 118 -19 37 -39 68
-44 68 -6 0 -10 -42 -10 -104 0 -83 3 -105 15 -110 19 -7 19 -35 1 -42 -13 -5
-14 -70 -9 -462 3 -252 7 -456 9 -454 2 1 9 2 15 2 5 0 15 14 20 30 9 24 17
30 39 30 16 0 36 -7 44 -16 38 -37 3 -101 -48 -88 -22 5 -33 1 -57 -22 -27
-26 -29 -33 -29 -100 0 -55 4 -73 15 -78 18 -7 20 -52 3 -63 -10 -6 -12 -42
-10 -141 2 -72 7 -132 11 -132 4 0 22 16 41 35 19 20 51 46 70 59 27 18 43 40
63 92 21 52 44 86 95 139 37 39 79 78 94 88 23 15 68 82 68 102 0 4 -9 3 -20
0 -33 -10 -23 0 35 39 72 48 104 85 125 145 11 34 33 65 72 102 30 30 59 61
64 69 5 9 21 23 36 33 16 10 32 33 39 57 7 22 18 45 26 51 10 9 13 65 13 260
0 215 -2 249 -15 249 -20 0 -19 17 3 29 15 9 18 40 23 353 4 189 7 403 8 476
1 147 5 155 61 132 29 -12 30 -15 30 -78 0 -48 5 -70 18 -85 15 -17 17 -50 20
-310 2 -185 7 -296 14 -304 7 -9 7 -17 -2 -28 -10 -12 -12 -68 -8 -238 4 -194
7 -227 23 -252 10 -17 12 -24 5 -17 -8 6 -17 12 -21 12 -5 0 -10 -107 -13
-237 -3 -131 -6 -256 -7 -278 -1 -22 1 -164 3 -315 3 -151 6 -355 7 -452 1
-151 3 -178 16 -178 8 0 15 -4 15 -10 0 -5 -7 -10 -15 -10 -23 0 -22 -391 1
-410 13 -11 16 -10 21 8 7 30 28 28 29 -2 2 -24 -14 -38 -46 -40 -18 -1 -35
-133 -19 -152 7 -8 6 -14 -1 -19 -11 -7 -14 -84 -2 -101 4 -6 15 -13 25 -17
24 -9 12 -27 -13 -20 -12 3 -29 -2 -40 -12 -18 -16 -23 -15 -104 29 -48 26
-114 66 -149 90 -37 24 -101 54 -153 70 -87 28 -206 82 -281 129 -21 12 -51
28 -67 35 -16 7 -26 15 -24 17 8 8 87 -23 153 -59 64 -35 194 -90 201 -84 2 2
-22 24 -54 48 -83 66 -254 233 -329 322 -97 117 -221 308 -290 448 -140 283
-204 559 -219 939 l-7 181 -28 0 c-28 0 -69 39 -69 65 0 7 -10 19 -22 27 -18
12 -23 26 -24 69 l-2 54 -55 5 c-64 6 -62 4 -82 52 -14 36 -14 37 10 56 14 11
54 25 91 32 l66 13 -6 206 c-3 113 -9 231 -13 261 l-8 55 -47 -90 c-76 -147
-150 -343 -199 -523 -38 -142 -41 -170 -22 -222 l17 -48 -41 -49 c-25 -29 -44
-64 -49 -88 -4 -22 -16 -59 -26 -83 -21 -47 -21 -78 1 -347 32 -398 42 -447
111 -516 26 -25 64 -52 86 -59 56 -18 154 -70 154 -82 0 -17 81 -108 95 -108
8 0 15 -10 17 -22 2 -13 10 -23 18 -23 33 0 35 156 2 243 -3 8 1 10 13 6 13
-5 16 -3 13 7 -3 8 -9 13 -14 13 -17 -3 -39 60 -33 96 l5 35 8 -40 c12 -64 15
-70 28 -57 18 18 51 15 44 -4 -3 -9 -6 -25 -6 -36 0 -12 -8 -22 -20 -25 -14
-4 -19 -11 -15 -24 3 -11 8 -29 12 -41 3 -13 6 -68 5 -123 -1 -99 -1 -99 36
-150 20 -27 39 -52 42 -55 4 -3 24 -25 46 -50 21 -25 28 -36 14 -25 -37 30
-90 84 -138 143 -45 54 -62 64 -62 36 0 -9 -7 -14 -17 -12 -25 5 -28 29 -4 35
11 3 18 9 16 14 -3 4 -12 6 -20 2 -11 -4 -15 2 -15 21 0 14 -3 26 -7 26 -5 1
-28 27 -53 60 -46 60 -98 95 -177 120 -23 7 -58 29 -79 49 -23 22 -35 29 -31
18 4 -11 10 -31 13 -45 10 -46 76 -226 87 -240 8 -10 12 -10 18 -1 6 10 11 10
21 1 8 -6 23 -9 35 -6 15 4 27 -3 48 -30 14 -19 32 -33 38 -30 7 2 18 -9 25
-26 8 -18 21 -30 33 -30 12 0 16 -5 13 -15 -8 -21 2 -19 26 5 20 20 56 26 76
12 5 -4 16 -21 23 -39 8 -18 18 -30 26 -27 13 5 28 -33 19 -48 -3 -4 -17 -5
-31 -2 -28 7 -43 -7 -43 -44 0 -22 -1 -22 -35 -8 -20 9 -37 11 -40 5 -4 -5
-24 -9 -46 -9 -44 0 -47 -5 -18 -40 l20 -25 16 22 c19 28 31 29 49 6 10 -14
15 -15 25 -6 23 22 49 -3 49 -47 0 -22 4 -40 9 -40 5 0 12 -20 15 -44 4 -24
13 -47 21 -50 8 -3 15 -12 15 -21 0 -17 25 -21 35 -5 10 16 27 0 20 -18 -15
-39 14 -76 118 -148 353 -245 712 -373 1104 -391 113 -5 137 -4 170 12 106 49
188 88 192 92 9 7 -14 22 -39 26 -14 2 -40 10 -59 17 l-34 13 7 101 c4 56 10
117 14 136 11 54 4 83 -19 77 -24 -6 -26 18 -3 31 12 7 14 15 8 33 -4 13 -7
34 -5 46 3 26 -15 39 -34 23 -13 -10 -15 -8 -15 14 0 14 0 29 0 34 -1 4 9 9
22 10 19 3 20 2 9 -12 -15 -18 -9 -32 8 -21 6 3 11 18 11 32 0 22 -4 25 -25
21 -14 -3 -28 -1 -31 3 -3 5 -12 9 -21 9 -10 0 -14 -6 -10 -20 7 -29 -9 -34
-35 -11 -12 12 -18 21 -12 21 5 0 17 12 27 26 15 20 16 28 6 40 -9 11 -9 18
-1 26 16 16 15 28 -3 28 -8 0 -15 -7 -15 -15 0 -22 -17 -18 -23 5 -3 11 -1 20
4 20 5 0 9 6 9 14 0 8 6 16 13 19 9 3 9 8 1 16 -7 8 -18 9 -35 2 -18 -7 -20
-10 -6 -10 28 -1 16 -33 -16 -44 -39 -12 -43 -4 -24 45 12 30 14 45 6 54 -6 7
-8 18 -4 24 9 15 25 12 19 -4 -4 -9 5 -15 28 -18 41 -7 58 0 51 18 -3 8 0 14
6 14 6 0 11 7 11 15 0 8 3 14 8 14 22 -4 32 3 31 24 -1 17 -2 18 -6 4 -3 -12
-10 -16 -24 -12 -11 4 -19 2 -19 -4 0 -6 -7 -11 -15 -11 -17 0 -20 25 -5 35 6
4 8 10 6 14 -3 4 0 13 5 21 8 12 12 12 16 3 2 -7 11 -13 19 -13 19 0 18 54 -1
70 -8 7 -15 24 -15 37 0 20 -4 24 -20 20 -11 -3 -20 -1 -20 4 0 5 -12 9 -27
10 -16 0 -36 4 -46 7 -15 7 -14 11 14 44 l32 37 19 -35 c10 -19 16 -40 12 -46
-4 -6 -1 -8 7 -5 8 3 32 12 55 18 l41 12 2 316 c2 358 2 359 -64 191 -25 -61
-34 -95 -26 -98 6 -2 11 -8 11 -14 0 -6 -7 -8 -15 -4 -8 3 -19 -2 -24 -11 -7
-14 -10 -13 -16 7 -5 16 -3 26 8 32 8 4 25 38 37 76 26 81 71 193 82 207 4 5
8 88 8 185 l0 176 -55 75 c-55 73 -75 91 -75 70 0 -17 -30 -13 -37 4 -3 9 2
22 13 30 18 13 18 14 0 34 -11 12 -17 24 -13 27 3 3 18 -14 33 -38 15 -23 30
-45 33 -48 4 -3 24 -29 45 -57 21 -29 42 -53 47 -53 5 0 9 14 9 31 0 40 10 32
59 -50 61 -104 129 -173 202 -205 40 -19 64 -25 71 -18 6 6 22 7 44 0 40 -11
93 3 118 31 9 10 27 46 41 82 14 35 30 73 35 84 5 11 19 45 30 75 12 30 26 66
32 80 17 43 165 443 179 485 7 22 16 45 21 50 13 19 28 65 20 65 -4 0 -19 -20
-34 -44 -24 -41 -33 -47 -96 -65 -115 -35 -127 -35 -181 -12 -60 26 -169 28
-254 6 -32 -8 -63 -15 -69 -15 -26 0 4 12 88 35 109 30 177 32 239 5 71 -31
77 -23 10 13 -34 18 -103 73 -160 127 -123 118 -159 145 -212 160 -52 16 -91
3 -145 -49 l-38 -35 0 129 c0 113 -3 134 -20 163 l-21 34 21 57 c12 36 20 82
20 125 0 66 1 68 23 63 120 -30 218 -40 372 -40 159 -1 175 1 252 26 109 36
173 81 189 132 26 79 25 77 55 71 25 -5 33 1 77 57 40 51 115 170 163 260 11
21 1 22 -43 3 -124 -52 -229 -76 -409 -92 -200 -17 -274 -14 -389 16 -70 18
-71 19 -20 12 89 -12 438 -7 520 7 82 14 279 76 295 93 7 7 -1 8 -27 4 -82
-15 -208 25 -429 134 -107 53 -201 104 -239 130 -14 9 -43 25 -65 35 -22 10
-65 41 -95 69 -30 29 -71 58 -90 65 -69 26 -205 84 -215 91 -5 4 -57 29 -115
55 -58 26 -150 69 -205 95 -132 63 -290 131 -395 170 -47 17 -96 36 -110 41
-17 8 -26 7 -28 0 -6 -18 -29 -13 -35 8 -2 10 -15 21 -28 24 -13 3 -58 14 -99
25 -118 31 -140 34 -140 17 0 -8 -4 -15 -10 -15 -5 0 -10 6 -10 14 0 19 -32
26 -120 25 -64 0 -71 -2 -45 -11z"/>
<path d="M3845 5438 c0 -60 -5 -83 -29 -132 -52 -106 -163 -190 -284 -215 -75
-16 -239 -14 -371 5 -62 8 -114 14 -116 12 -9 -9 69 -109 99 -127 19 -12 36
-27 39 -34 8 -22 217 -105 291 -117 75 -12 138 -7 203 16 38 14 43 20 78 102
21 48 51 116 67 151 75 164 103 305 75 374 -10 23 -23 37 -34 37 -16 0 -18 -9
-18 -72z"/>
<path d="M4144 4648 c-3 -11 0 -26 7 -34 15 -18 3 -32 -13 -16 -9 9 -16 5 -28
-20 -9 -18 -49 -94 -88 -169 -40 -75 -72 -142 -72 -149 0 -8 -10 -24 -22 -37
-12 -13 -21 -36 -21 -53 0 -17 -6 -30 -13 -30 -16 0 -79 -123 -65 -128 6 -2
11 -8 11 -14 0 -6 -7 -8 -15 -4 -18 6 -61 -69 -45 -79 19 -12 11 -37 -9 -30
-15 4 -24 -4 -43 -42 -53 -105 -202 -390 -223 -428 -144 -257 -291 -609 -320
-768 -15 -82 -5 -199 26 -291 16 -50 19 -75 14 -138 -6 -70 -5 -79 11 -85 23
-8 99 -58 136 -88 14 -12 43 -25 65 -28 32 -6 43 -14 67 -53 35 -56 99 -102
119 -85 16 13 27 5 27 -19 0 -10 13 -23 29 -29 l28 -12 7 -162 c8 -183 8 -429
0 -500 -5 -43 -3 -49 15 -54 25 -6 27 -25 6 -43 -20 -17 -19 -57 3 -69 14 -8
15 -12 5 -22 -19 -19 -16 -29 7 -29 12 0 32 -12 47 -26 24 -24 26 -24 44 -8
10 9 19 25 19 36 0 10 5 18 11 18 7 0 9 11 6 29 -6 30 8 52 28 45 7 -3 15 2
18 10 4 9 3 15 -1 15 -22 -4 -42 2 -42 12 0 7 10 9 25 7 14 -3 25 -1 25 3 0 5
-4 9 -10 9 -5 0 -10 5 -10 10 0 6 7 10 16 10 12 0 15 6 10 23 -3 12 -6 32 -6
45 0 30 -18 28 -26 -4 l-7 -27 -13 24 c-7 13 -9 26 -5 29 4 3 11 13 14 24 4
11 13 16 22 12 12 -4 14 6 11 66 -2 39 0 65 4 57 8 -16 22 -181 20 -252 -1
-36 3 -47 15 -47 14 0 21 37 15 79 -1 10 7 13 32 9 30 -5 37 -1 72 41 l39 45
-5 76 c-5 68 -4 72 6 36 l12 -38 32 36 c18 20 32 42 33 49 1 7 0 113 -1 237
l-2 225 43 45 c33 35 44 55 51 94 8 53 48 106 79 106 14 0 29 18 29 36 0 2
-31 18 -70 35 -82 37 -90 54 -24 46 136 -15 260 142 269 341 l4 73 -66 -61
c-91 -86 -170 -118 -258 -105 l-45 7 0 182 c0 99 -5 230 -11 291 -9 85 -9 127
0 185 11 66 11 82 -3 113 -8 20 -21 37 -29 37 -8 0 -17 10 -21 23 -8 31 -7 37
4 37 6 0 10 -7 10 -15 0 -20 16 -19 24 1 9 23 7 36 -4 29 -6 -4 -10 5 -10 20
0 20 4 26 15 21 11 -4 15 1 15 18 0 36 -10 55 -26 49 -8 -3 -14 0 -14 5 0 6
12 12 27 14 28 3 45 28 19 28 -19 0 -22 26 -3 33 9 3 7 10 -5 23 -17 17 -18
17 -18 1 0 -26 -29 -20 -36 7 -4 18 -15 26 -39 30 -33 7 -34 8 -17 26 9 11 24
20 33 20 9 0 20 10 24 23 6 20 8 20 12 3 3 -10 0 -22 -7 -26 -7 -4 -9 -16 -6
-27 5 -15 13 -19 31 -15 15 2 25 0 25 -7 0 -6 5 -11 11 -11 16 0 3 121 -13
131 -9 6 -8 10 4 14 13 5 16 18 15 60 -2 47 -5 54 -22 52 -12 -1 -21 5 -23 16
-3 16 -1 17 16 8 12 -6 23 -11 26 -11 4 0 6 78 5 174 -1 165 -2 175 -20 178
-24 4 -21 24 4 21 16 -3 17 11 17 157 0 153 -1 160 -20 160 -11 0 -20 5 -20
10 0 6 9 10 20 10 25 0 27 37 3 43 -17 4 -17 5 0 6 10 1 17 9 17 20 0 27 -67
35 -76 9z m-437 -1301 c1 -67 2 -193 2 -281 l1 -159 22 29 c34 46 38 49 38 33
0 -9 -13 -36 -30 -60 -27 -40 -30 -51 -30 -128 l0 -83 -32 5 c-176 31 -277 29
-349 -7 -18 -9 -34 -14 -37 -12 -2 3 67 143 154 313 86 169 177 348 202 396
24 49 47 86 50 82 4 -4 8 -61 9 -128z"/>
<path d="M6700 4560 c0 -5 12 -16 28 -24 62 -33 277 -273 361 -404 18 -29 36
-51 38 -48 10 10 -34 194 -69 283 -22 57 -15 53 -242 154 -120 54 -116 53
-116 39z"/>
<path d="M1515 4502 c-212 -113 -311 -179 -419 -282 -122 -115 -178 -180 -217
-253 -29 -54 -30 -63 -25 -130 13 -158 17 -336 8 -401 -8 -58 -6 -73 10 -104
23 -46 23 -58 -2 -90 -25 -31 -14 -47 42 -55 47 -7 58 9 58 87 0 30 5 89 11
131 9 60 9 81 -1 100 -11 21 -10 27 7 42 12 10 28 48 39 88 19 76 92 263 127
329 35 64 114 183 180 269 74 99 232 264 269 283 29 15 38 34 16 34 -7 0 -53
-22 -103 -48z"/>
<path d="M3169 2769 c-23 -46 -65 -129 -94 -184 -29 -55 -92 -176 -140 -270
-48 -93 -92 -175 -97 -182 -16 -20 1 -37 20 -19 45 40 195 72 264 57 59 -14
81 -14 75 2 -2 7 -2 30 2 52 5 29 -1 66 -21 135 -22 76 -28 116 -28 196 0 91
3 111 35 195 19 51 33 95 30 97 -2 2 -23 -34 -46 -79z"/>
<path d="M4594 2553 c1 -27 3 -83 4 -125 l2 -77 38 13 c61 21 83 101 42 153
-11 14 -20 34 -20 45 0 16 -34 38 -60 38 -4 0 -7 -21 -6 -47z"/>
<path d="M6704 1268 c-80 -83 -122 -145 -126 -188 -3 -29 0 -35 19 -38 37 -5
102 18 131 46 15 15 34 47 41 72 8 25 22 70 32 100 9 30 15 58 13 62 -15 23
-54 4 -110 -54z"/>
<path d="M3677 954 c-4 -4 -4 -16 -2 -28 4 -14 -3 -31 -20 -50 -30 -34 -29
-25 -9 -81 20 -59 15 -72 -16 -43 -19 18 -22 19 -17 4 4 -10 7 -29 7 -43 0
-25 1 -25 18 -10 10 10 24 17 30 17 7 0 12 14 12 30 0 17 -4 30 -10 30 -5 0
-10 7 -10 15 0 8 7 15 16 15 10 0 14 6 11 14 -3 8 1 22 8 33 14 17 14 17 15
-1 0 -12 5 -16 15 -12 9 3 19 -3 26 -16 11 -20 11 -20 35 8 31 38 30 46 -6 67
-37 22 -49 16 -42 -19 3 -19 1 -25 -7 -20 -6 4 -11 18 -11 32 0 43 -25 76 -43
58z"/>
<path d="M2670 600 c-19 -10 -68 -31 -107 -46 -81 -30 -95 -48 -30 -40 23 3
145 8 272 11 180 4 232 8 243 19 13 12 8 15 -34 21 -27 3 -99 17 -161 30 -133
30 -138 30 -183 5z"/>
</g>
</svg>
